<svg width="58" height="85" viewBox="0 0 58 85" fill="none" xmlns="http://www.w3.org/2000/svg">
	<g clip-path="url(#clip0_0_453)">
		<rect x="2" width="54" height="1" fill="black" />
		<rect x="2" y="84" width="54" height="1" fill="black" />
		<rect x="56" y="1" width="1" height="1" fill="black" />
		<rect x="56" y="83" width="1" height="1" fill="black" />
		<rect x="1" y="83" width="1" height="1" fill="black" />
		<rect x="2" y="83" width="54" height="1" fill="#8B9AC6" />
		<rect x="1" y="2" width="56" height="1" fill="#DEE2EF" />
		<rect x="1" y="1" width="55" height="1" fill="#DEE2EF" />
		<rect x="56" y="82" width="1" height="1" fill="#8B9AC6" />
		<rect x="1" y="82" width="1" height="1" fill="#8B9AC6" />
		<rect x="2" y="82" width="54" height="1" fill="#FEFEFC" />
		<rect x="56" y="81" width="1" height="1" fill="#FEFEFC" />
		<rect x="57" y="2" width="1" height="81" fill="black" />
		<rect y="2" width="1" height="81" fill="black" />
		<rect x="5" y="3" width="52" height="78" fill="#EEF0F9" />
		<rect x="1" y="1" width="1" height="1" fill="black" />
		<rect x="1" y="81" width="56" height="1" fill="#DCE2F0" />
		<rect x="1" y="80" width="55" height="1" fill="#DCE2F0" />
		<rect x="1" y="79" width="54" height="1" fill="#DCE2F0" />
		<rect x="1" y="78" width="54" height="1" fill="#DCE2F0" />
		<rect x="1" y="76" width="52" height="1" fill="#DCE2F0" />
		<rect x="1" y="75" width="52" height="1" fill="#DCE2F0" />
		<rect x="1" y="73" width="50" height="1" fill="#DCE2F0" />
		<rect x="1" y="72" width="50" height="1" fill="#DCE2F0" />
		<rect x="1" y="70" width="48" height="1" fill="#DCE2F0" />
		<rect x="1" y="69" width="48" height="1" fill="#DCE2F0" />
		<rect x="1" y="77" width="53" height="1" fill="#DCE2F0" />
		<rect x="1" y="74" width="51" height="1" fill="#DCE2F0" />
		<rect x="1" y="71" width="49" height="1" fill="#DCE2F0" />
		<rect x="1" y="68" width="47" height="1" fill="#DCE2F0" />
		<rect x="1" y="67" width="46" height="1" fill="#DCE2F0" />
		<rect x="1" y="66" width="46" height="1" fill="#DCE2F0" />
		<rect x="1" y="64" width="44" height="1" fill="#DCE2F0" />
		<rect x="1" y="63" width="44" height="1" fill="#DCE2F0" />
		<rect x="1" y="61" width="42" height="1" fill="#DCE2F0" />
		<rect x="1" y="60" width="42" height="1" fill="#DCE2F0" />
		<rect x="1" y="58" width="40" height="1" fill="#DCE2F0" />
		<rect x="1" y="57" width="40" height="1" fill="#DCE2F0" />
		<rect x="1" y="65" width="45" height="1" fill="#DCE2F0" />
		<rect x="1" y="62" width="43" height="1" fill="#DCE2F0" />
		<rect x="1" y="59" width="41" height="1" fill="#DCE2F0" />
		<rect x="1" y="55" width="38" height="1" fill="#DCE2F0" />
		<rect x="1" y="54" width="38" height="1" fill="#DCE2F0" />
		<rect x="1" y="52" width="37" height="1" fill="#DCE2F0" />
		<rect x="1" y="51" width="36" height="1" fill="#DCE2F0" />
		<rect x="1" y="49" width="34" height="1" fill="#DCE2F0" />
		<rect x="1" y="48" width="34" height="1" fill="#DCE2F0" />
		<rect x="1" y="56" width="39" height="1" fill="#DCE2F0" />
		<rect x="1" y="53" width="37" height="1" fill="#DCE2F0" />
		<rect x="1" y="50" width="35" height="1" fill="#DCE2F0" />
		<rect x="1" y="47" width="33" height="1" fill="#DCE2F0" />
		<rect x="1" y="46" width="32" height="1" fill="#DCE2F0" />
		<rect x="1" y="45" width="32" height="1" fill="#DCE2F0" />
		<rect x="1" y="43" width="30" height="1" fill="#DCE2F0" />
		<rect x="1" y="42" width="30" height="1" fill="#DCE2F0" />
		<rect x="1" y="40" width="28" height="1" fill="#DCE2F0" />
		<rect x="1" y="39" width="28" height="1" fill="#DCE2F0" />
		<rect x="1" y="37" width="26" height="1" fill="#DCE2F0" />
		<rect x="1" y="36" width="26" height="1" fill="#DCE2F0" />
		<rect x="1" y="44" width="31" height="1" fill="#DCE2F0" />
		<rect x="1" y="41" width="29" height="1" fill="#DCE2F0" />
		<rect x="1" y="38" width="27" height="1" fill="#DCE2F0" />
		<rect x="1" y="35" width="25" height="1" fill="#DCE2F0" />
		<rect x="1" y="33" width="24" height="1" fill="#DCE2F0" />
		<rect x="1" y="32" width="23" height="1" fill="#DCE2F0" />
		<rect x="1" y="30" width="22" height="1" fill="#DCE2F0" />
		<rect x="1" y="29" width="21" height="1" fill="#DCE2F0" />
		<rect x="1" y="34" width="24" height="1" fill="#DCE2F0" />
		<rect x="1" y="31" width="22" height="1" fill="#DCE2F0" />
		<rect x="1" y="28" width="20" height="1" fill="#DCE2F0" />
		<rect x="1" y="27" width="20" height="1" fill="#DCE2F0" />
		<rect x="1" y="26" width="19" height="1" fill="#DCE2F0" />
		<rect x="1" y="24" width="18" height="1" fill="#DCE2F0" />
		<rect x="1" y="23" width="17" height="1" fill="#DCE2F0" />
		<rect x="1" y="21" width="16" height="1" fill="#DCE2F0" />
		<rect x="1" y="20" width="15" height="1" fill="#DCE2F0" />
		<rect x="1" y="18" width="14" height="1" fill="#DCE2F0" />
		<rect x="1" y="17" width="13" height="1" fill="#DCE2F0" />
		<rect x="1" y="25" width="18" height="1" fill="#DCE2F0" />
		<rect x="1" y="22" width="16" height="1" fill="#DCE2F0" />
		<rect x="1" y="19" width="14" height="1" fill="#DCE2F0" />
		<rect x="1" y="15" width="12" height="1" fill="#DCE2F0" />
		<rect x="1" y="14" width="11" height="1" fill="#DCE2F0" />
		<rect x="1" y="16" width="12" height="1" fill="#DCE2F0" />
		<rect x="1" y="13" width="10" height="1" fill="#DCE2F0" />
		<rect x="1" y="12" width="10" height="1" fill="#DCE2F0" />
		<rect x="1" y="11" width="9" height="1" fill="#DCE2F0" />
		<rect x="1" y="9" width="8" height="1" fill="#DCE2F0" />
		<rect x="1" y="8" width="7" height="1" fill="#DCE2F0" />
		<rect x="1" y="6" width="6" height="1" fill="#DCE2F0" />
		<rect x="1" y="5" width="5" height="1" fill="#DCE2F0" />
		<rect x="1" y="3" width="4" height="1" fill="#DCE2F0" />
		<rect x="1" y="10" width="8" height="1" fill="#DCE2F0" />
		<rect x="1" y="7" width="6" height="1" fill="#DCE2F0" />
		<rect x="1" y="4" width="4" height="1" fill="#DCE2F0" />
		<path d="M5.875 17.625V15.75H11.5V17.625H5.875ZM4 15.75V13.875H5.875V15.75H4ZM11.5 15.75V12H13.375V15.75H11.5ZM7.75 12V10.125H11.5V12H7.75ZM4 8.25V6.375H5.875V8.25H4ZM11.5 10.125V6.375H13.375V10.125H11.5ZM5.875 6.375V4.5H11.5V6.375H5.875Z" fill="black" />
		<path d="M52.125 65.375V67.25H46.5V65.375H52.125ZM54 67.25V69.125H52.125V67.25H54ZM46.5 67.25V71H44.625V67.25H46.5ZM50.25 71V72.875H46.5V71H50.25ZM54 74.75V76.625H52.125V74.75H54ZM46.5 72.875V76.625H44.625V72.875H46.5ZM52.125 76.625V78.5H46.5V76.625H52.125Z" fill="black" />
		<rect x="5.52631" y="19" width="1.26316" height="0.631579" fill="#010004" />
		<rect x="11.8421" y="19" width="1.26316" height="0.631579" fill="#010004" />
		<rect x="10.5789" y="19.6316" width="1.26316" height="0.631579" fill="#010004" />
		<rect x="6.78947" y="19.6316" width="1.26316" height="0.631579" fill="#010004" />
		<rect x="9.94737" y="20.2632" width="0.631579" height="0.631579" fill="#010004" />
		<rect x="8.05264" y="20.2632" width="0.631579" height="0.631579" fill="#010004" />
		<rect x="4.89474" y="19.6316" width="0.631579" height="0.631579" fill="#010004" />
		<rect x="4.26316" y="20.2632" width="0.631579" height="0.631579" fill="#010004" />
		<rect x="3.63158" y="20.8947" width="0.631579" height="0.631579" fill="#010004" />
		<rect x="13.1053" y="19.6316" width="0.631579" height="0.631579" fill="#010004" />
		<rect x="13.7368" y="20.2632" width="0.631579" height="0.631579" fill="#010004" />
		<rect x="4.26316" y="25.3158" width="0.631579" height="0.631579" fill="#010004" />
		<rect x="5.52631" y="27.2105" width="0.631579" height="0.631579" fill="#010004" />
		<rect x="6.1579" y="27.8421" width="0.631579" height="0.631579" fill="#010004" />
		<rect x="6.78947" y="28.4737" width="0.631579" height="0.631579" fill="#010004" />
		<rect x="13.7368" y="25.3158" width="0.631579" height="0.631579" fill="#010004" />
		<rect x="12.4737" y="27.2105" width="0.631579" height="0.631579" fill="#010004" />
		<rect x="11.8421" y="27.8421" width="0.631579" height="0.631579" fill="#010004" />
		<rect x="11.2105" y="28.4737" width="0.631579" height="0.631579" fill="#010004" />
		<rect x="10.5789" y="29.1053" width="0.631579" height="0.631579" fill="#010004" />
		<rect x="9.94737" y="29.7368" width="0.631579" height="0.631579" fill="#010004" />
		<rect x="8.68421" y="30.3684" width="1.26316" height="0.631579" fill="#010004" />
		<rect x="7.42105" y="29.1053" width="0.631579" height="0.631579" fill="#010004" />
		<rect x="8.05264" y="29.7368" width="0.631579" height="0.631579" fill="#010004" />
		<rect x="14.3684" y="20.8947" width="0.631579" height="0.631579" fill="#010004" />
		<rect x="3.63158" y="24.0526" width="0.631579" height="1.26316" fill="#010004" />
		<rect x="14.3684" y="24.0526" width="0.631579" height="1.26316" fill="#010004" />
		<rect x="4.89474" y="25.9474" width="0.631579" height="1.26316" fill="#010004" />
		<rect x="13.1053" y="25.9474" width="0.631579" height="1.26316" fill="#010004" />
		<rect x="8.68421" y="20.8947" width="1.26316" height="0.631579" fill="#010004" />
		<rect x="4.26316" y="20.8947" width="4.42105" height="0.631579" fill="#9C3748" />
		<rect x="3.63158" y="21.5263" width="11.3684" height="0.631579" fill="#9C3748" />
		<rect x="3.63158" y="22.1579" width="11.3684" height="0.631579" fill="#9C3748" />
		<rect x="3.63158" y="22.7895" width="11.3684" height="0.631579" fill="#9C3748" />
		<rect x="3.63158" y="23.4211" width="11.3684" height="0.631579" fill="#C03C49" />
		<rect x="4.89474" y="25.3158" width="8.84211" height="0.631579" fill="#C03C49" />
		<rect x="6.1579" y="27.2105" width="6.31579" height="0.631579" fill="#C03C49" />
		<rect x="6.78947" y="27.8421" width="5.05263" height="0.631579" fill="#C03C49" />
		<rect x="7.42105" y="28.4737" width="3.78947" height="0.631579" fill="#C03C49" />
		<rect x="8.05264" y="29.1053" width="2.52632" height="0.631579" fill="#C03C49" />
		<rect x="8.68421" y="29.7368" width="1.26316" height="0.631579" fill="#C03C49" />
		<rect x="4.26316" y="24.0526" width="10.1053" height="1.26316" fill="#C03C49" />
		<rect x="5.52631" y="25.9474" width="7.57895" height="1.26316" fill="#C03C49" />
		<rect x="4.89474" y="20.2632" width="3.15789" height="0.631579" fill="#9C3748" />
		<rect x="5.52631" y="19.6316" width="1.26316" height="0.631579" fill="#9C3748" />
		<rect x="9.94737" y="20.8947" width="4.42105" height="0.631579" fill="#9C3748" />
		<rect x="10.5789" y="20.2632" width="3.15789" height="0.631579" fill="#9C3748" />
		<rect x="11.8421" y="19.6316" width="1.26316" height="0.631579" fill="#9C3748" />
		<rect x="8.68421" y="20.8947" width="1.26316" height="0.631579" fill="#010004" />
		<rect width="0.631579" height="2.52632" transform="matrix(-1 0 0 1 3.63158 21.5263)" fill="#010004" />
		<rect width="0.631579" height="2.52632" transform="matrix(-1 0 0 1 15.6316 21.5263)" fill="#010004" />
		<rect x="52.1053" y="64" width="1.26316" height="0.631579" transform="rotate(-180 52.1053 64)" fill="#010004" />
		<rect x="45.7895" y="64" width="1.26316" height="0.631579" transform="rotate(-180 45.7895 64)" fill="#010004" />
		<rect x="47.0526" y="63.3684" width="1.26316" height="0.631579" transform="rotate(-180 47.0526 63.3684)" fill="#010004" />
		<rect x="50.8421" y="63.3684" width="1.26316" height="0.631579" transform="rotate(-180 50.8421 63.3684)" fill="#010004" />
		<rect x="47.6842" y="62.7368" width="0.631579" height="0.631579" transform="rotate(-180 47.6842 62.7368)" fill="#010004" />
		<rect x="49.5789" y="62.7368" width="0.631579" height="0.631579" transform="rotate(-180 49.5789 62.7368)" fill="#010004" />
		<rect x="52.7368" y="63.3684" width="0.631579" height="0.631579" transform="rotate(-180 52.7368 63.3684)" fill="#010004" />
		<rect x="53.3684" y="62.7368" width="0.631579" height="0.631579" transform="rotate(-180 53.3684 62.7368)" fill="#010004" />
		<rect x="54" y="62.1053" width="0.631579" height="0.631579" transform="rotate(-180 54 62.1053)" fill="#010004" />
		<rect x="44.5263" y="63.3684" width="0.631579" height="0.631579" transform="rotate(-180 44.5263 63.3684)" fill="#010004" />
		<rect x="43.8947" y="62.7368" width="0.631579" height="0.631579" transform="rotate(-180 43.8947 62.7368)" fill="#010004" />
		<rect x="53.3684" y="57.6842" width="0.631579" height="0.631579" transform="rotate(-180 53.3684 57.6842)" fill="#010004" />
		<rect x="52.1053" y="55.7895" width="0.631579" height="0.631579" transform="rotate(-180 52.1053 55.7895)" fill="#010004" />
		<rect x="51.4737" y="55.1579" width="0.631579" height="0.631579" transform="rotate(-180 51.4737 55.1579)" fill="#010004" />
		<rect x="50.8421" y="54.5263" width="0.631579" height="0.631579" transform="rotate(-180 50.8421 54.5263)" fill="#010004" />
		<rect x="43.8947" y="57.6842" width="0.631579" height="0.631579" transform="rotate(-180 43.8947 57.6842)" fill="#010004" />
		<rect x="45.1579" y="55.7895" width="0.631579" height="0.631579" transform="rotate(-180 45.1579 55.7895)" fill="#010004" />
		<rect x="45.7895" y="55.1579" width="0.631579" height="0.631579" transform="rotate(-180 45.7895 55.1579)" fill="#010004" />
		<rect x="46.4211" y="54.5263" width="0.631579" height="0.631579" transform="rotate(-180 46.4211 54.5263)" fill="#010004" />
		<rect x="47.0526" y="53.8947" width="0.631579" height="0.631579" transform="rotate(-180 47.0526 53.8947)" fill="#010004" />
		<rect x="47.6842" y="53.2632" width="0.631579" height="0.631579" transform="rotate(-180 47.6842 53.2632)" fill="#010004" />
		<rect x="48.9474" y="52.6316" width="1.26316" height="0.631579" transform="rotate(-180 48.9474 52.6316)" fill="#010004" />
		<rect x="50.2105" y="53.8947" width="0.631579" height="0.631579" transform="rotate(-180 50.2105 53.8947)" fill="#010004" />
		<rect x="49.5789" y="53.2632" width="0.631579" height="0.631579" transform="rotate(-180 49.5789 53.2632)" fill="#010004" />
		<rect x="43.2632" y="62.1053" width="0.631579" height="0.631579" transform="rotate(-180 43.2632 62.1053)" fill="#010004" />
		<rect x="54" y="58.9474" width="0.631579" height="1.26316" transform="rotate(-180 54 58.9474)" fill="#010004" />
		<rect x="43.2632" y="58.9474" width="0.631579" height="1.26316" transform="rotate(-180 43.2632 58.9474)" fill="#010004" />
		<rect x="52.7368" y="57.0526" width="0.631579" height="1.26316" transform="rotate(-180 52.7368 57.0526)" fill="#010004" />
		<rect x="44.5263" y="57.0526" width="0.631579" height="1.26316" transform="rotate(-180 44.5263 57.0526)" fill="#010004" />
		<rect x="48.9474" y="62.1053" width="1.26316" height="0.631579" transform="rotate(-180 48.9474 62.1053)" fill="#010004" />
		<rect x="53.3684" y="62.1053" width="4.42105" height="0.631579" transform="rotate(-180 53.3684 62.1053)" fill="#9C3748" />
		<rect x="54" y="61.4737" width="11.3684" height="0.631579" transform="rotate(-180 54 61.4737)" fill="#9C3748" />
		<rect x="54" y="60.8421" width="11.3684" height="0.631579" transform="rotate(-180 54 60.8421)" fill="#9C3748" />
		<rect x="54" y="60.2105" width="11.3684" height="0.631579" transform="rotate(-180 54 60.2105)" fill="#9C3748" />
		<rect x="54" y="59.5789" width="11.3684" height="0.631579" transform="rotate(-180 54 59.5789)" fill="#C03C49" />
		<rect x="52.7368" y="57.6842" width="8.84211" height="0.631579" transform="rotate(-180 52.7368 57.6842)" fill="#C03C49" />
		<rect x="51.4737" y="55.7895" width="6.31579" height="0.631579" transform="rotate(-180 51.4737 55.7895)" fill="#C03C49" />
		<rect x="50.8421" y="55.1579" width="5.05263" height="0.631579" transform="rotate(-180 50.8421 55.1579)" fill="#C03C49" />
		<rect x="50.2105" y="54.5263" width="3.78947" height="0.631579" transform="rotate(-180 50.2105 54.5263)" fill="#C03C49" />
		<rect x="49.5789" y="53.8947" width="2.52632" height="0.631579" transform="rotate(-180 49.5789 53.8947)" fill="#C03C49" />
		<rect x="48.9474" y="53.2632" width="1.26316" height="0.631579" transform="rotate(-180 48.9474 53.2632)" fill="#C03C49" />
		<rect x="53.3684" y="58.9474" width="10.1053" height="1.26316" transform="rotate(-180 53.3684 58.9474)" fill="#C03C49" />
		<rect x="52.1053" y="57.0526" width="7.57895" height="1.26316" transform="rotate(-180 52.1053 57.0526)" fill="#C03C49" />
		<rect x="52.7368" y="62.7368" width="3.15789" height="0.631579" transform="rotate(-180 52.7368 62.7368)" fill="#9C3748" />
		<rect x="52.1053" y="63.3684" width="1.26316" height="0.631579" transform="rotate(-180 52.1053 63.3684)" fill="#9C3748" />
		<rect x="47.6842" y="62.1053" width="4.42105" height="0.631579" transform="rotate(-180 47.6842 62.1053)" fill="#9C3748" />
		<rect x="47.0526" y="62.7368" width="3.15789" height="0.631579" transform="rotate(-180 47.0526 62.7368)" fill="#9C3748" />
		<rect x="45.7895" y="63.3684" width="1.26316" height="0.631579" transform="rotate(-180 45.7895 63.3684)" fill="#9C3748" />
		<rect x="48.9474" y="62.1053" width="1.26316" height="0.631579" transform="rotate(-180 48.9474 62.1053)" fill="#010004" />
		<rect width="0.631579" height="2.52632" transform="matrix(1 0 0 -1 54 61.4737)" fill="#010004" />
		<rect width="0.631579" height="2.52632" transform="matrix(1 0 0 -1 42 61.4737)" fill="#010004" />
	</g>
	<defs>
		<clipPath id="clip0_0_453">
			<rect width="58" height="85" fill="white" />
		</clipPath>
	</defs>
</svg>
