<svg width="58" height="85" viewBox="0 0 58 85" fill="none" xmlns="http://www.w3.org/2000/svg">
	<g clip-path="url(#clip0_0_1065)">
		<rect x="2" width="54" height="1" fill="black" />
		<rect x="2" y="84" width="54" height="1" fill="black" />
		<rect x="56" y="1" width="1" height="1" fill="black" />
		<rect x="56" y="83" width="1" height="1" fill="black" />
		<rect x="1" y="83" width="1" height="1" fill="black" />
		<rect x="2" y="83" width="54" height="1" fill="#8B9AC6" />
		<rect x="1" y="2" width="56" height="1" fill="#DEE2EF" />
		<rect x="1" y="1" width="55" height="1" fill="#DEE2EF" />
		<rect x="56" y="82" width="1" height="1" fill="#8B9AC6" />
		<rect x="1" y="82" width="1" height="1" fill="#8B9AC6" />
		<rect x="2" y="82" width="54" height="1" fill="#FEFEFC" />
		<rect x="56" y="81" width="1" height="1" fill="#FEFEFC" />
		<rect x="57" y="2" width="1" height="81" fill="black" />
		<rect y="2" width="1" height="81" fill="black" />
		<rect x="5" y="3" width="52" height="78" fill="#EEF0F9" />
		<rect x="1" y="1" width="1" height="1" fill="black" />
		<rect x="1" y="81" width="56" height="1" fill="#DCE2F0" />
		<rect x="1" y="80" width="55" height="1" fill="#DCE2F0" />
		<rect x="1" y="79" width="54" height="1" fill="#DCE2F0" />
		<rect x="1" y="78" width="54" height="1" fill="#DCE2F0" />
		<rect x="1" y="76" width="52" height="1" fill="#DCE2F0" />
		<rect x="1" y="75" width="52" height="1" fill="#DCE2F0" />
		<rect x="1" y="73" width="50" height="1" fill="#DCE2F0" />
		<rect x="1" y="72" width="50" height="1" fill="#DCE2F0" />
		<rect x="1" y="70" width="48" height="1" fill="#DCE2F0" />
		<rect x="1" y="69" width="48" height="1" fill="#DCE2F0" />
		<rect x="1" y="77" width="53" height="1" fill="#DCE2F0" />
		<rect x="1" y="74" width="51" height="1" fill="#DCE2F0" />
		<rect x="1" y="71" width="49" height="1" fill="#DCE2F0" />
		<rect x="1" y="68" width="47" height="1" fill="#DCE2F0" />
		<rect x="1" y="67" width="46" height="1" fill="#DCE2F0" />
		<rect x="1" y="66" width="46" height="1" fill="#DCE2F0" />
		<rect x="1" y="64" width="44" height="1" fill="#DCE2F0" />
		<rect x="1" y="63" width="44" height="1" fill="#DCE2F0" />
		<rect x="1" y="61" width="42" height="1" fill="#DCE2F0" />
		<rect x="1" y="60" width="42" height="1" fill="#DCE2F0" />
		<rect x="1" y="58" width="40" height="1" fill="#DCE2F0" />
		<rect x="1" y="57" width="40" height="1" fill="#DCE2F0" />
		<rect x="1" y="65" width="45" height="1" fill="#DCE2F0" />
		<rect x="1" y="62" width="43" height="1" fill="#DCE2F0" />
		<rect x="1" y="59" width="41" height="1" fill="#DCE2F0" />
		<rect x="1" y="55" width="38" height="1" fill="#DCE2F0" />
		<rect x="1" y="54" width="38" height="1" fill="#DCE2F0" />
		<rect x="1" y="52" width="37" height="1" fill="#DCE2F0" />
		<rect x="1" y="51" width="36" height="1" fill="#DCE2F0" />
		<rect x="1" y="49" width="34" height="1" fill="#DCE2F0" />
		<rect x="1" y="48" width="34" height="1" fill="#DCE2F0" />
		<rect x="1" y="56" width="39" height="1" fill="#DCE2F0" />
		<rect x="1" y="53" width="37" height="1" fill="#DCE2F0" />
		<rect x="1" y="50" width="35" height="1" fill="#DCE2F0" />
		<rect x="1" y="47" width="33" height="1" fill="#DCE2F0" />
		<rect x="1" y="46" width="32" height="1" fill="#DCE2F0" />
		<rect x="1" y="45" width="32" height="1" fill="#DCE2F0" />
		<rect x="1" y="43" width="30" height="1" fill="#DCE2F0" />
		<rect x="1" y="42" width="30" height="1" fill="#DCE2F0" />
		<rect x="1" y="40" width="28" height="1" fill="#DCE2F0" />
		<rect x="1" y="39" width="28" height="1" fill="#DCE2F0" />
		<rect x="1" y="37" width="26" height="1" fill="#DCE2F0" />
		<rect x="1" y="36" width="26" height="1" fill="#DCE2F0" />
		<rect x="1" y="44" width="31" height="1" fill="#DCE2F0" />
		<rect x="1" y="41" width="29" height="1" fill="#DCE2F0" />
		<rect x="1" y="38" width="27" height="1" fill="#DCE2F0" />
		<rect x="1" y="35" width="25" height="1" fill="#DCE2F0" />
		<rect x="1" y="33" width="24" height="1" fill="#DCE2F0" />
		<rect x="1" y="32" width="23" height="1" fill="#DCE2F0" />
		<rect x="1" y="30" width="22" height="1" fill="#DCE2F0" />
		<rect x="1" y="29" width="21" height="1" fill="#DCE2F0" />
		<rect x="1" y="34" width="24" height="1" fill="#DCE2F0" />
		<rect x="1" y="31" width="22" height="1" fill="#DCE2F0" />
		<rect x="1" y="28" width="20" height="1" fill="#DCE2F0" />
		<rect x="1" y="27" width="20" height="1" fill="#DCE2F0" />
		<rect x="1" y="26" width="19" height="1" fill="#DCE2F0" />
		<rect x="1" y="24" width="18" height="1" fill="#DCE2F0" />
		<rect x="1" y="23" width="17" height="1" fill="#DCE2F0" />
		<rect x="1" y="21" width="16" height="1" fill="#DCE2F0" />
		<rect x="1" y="20" width="15" height="1" fill="#DCE2F0" />
		<rect x="1" y="18" width="14" height="1" fill="#DCE2F0" />
		<rect x="1" y="17" width="13" height="1" fill="#DCE2F0" />
		<rect x="1" y="25" width="18" height="1" fill="#DCE2F0" />
		<rect x="1" y="22" width="16" height="1" fill="#DCE2F0" />
		<rect x="1" y="19" width="14" height="1" fill="#DCE2F0" />
		<rect x="1" y="15" width="12" height="1" fill="#DCE2F0" />
		<rect x="1" y="14" width="11" height="1" fill="#DCE2F0" />
		<rect x="1" y="16" width="12" height="1" fill="#DCE2F0" />
		<rect x="1" y="13" width="10" height="1" fill="#DCE2F0" />
		<rect x="1" y="12" width="10" height="1" fill="#DCE2F0" />
		<rect x="1" y="11" width="9" height="1" fill="#DCE2F0" />
		<rect x="1" y="9" width="8" height="1" fill="#DCE2F0" />
		<rect x="1" y="8" width="7" height="1" fill="#DCE2F0" />
		<rect x="1" y="6" width="6" height="1" fill="#DCE2F0" />
		<rect x="1" y="5" width="5" height="1" fill="#DCE2F0" />
		<rect x="1" y="3" width="4" height="1" fill="#DCE2F0" />
		<rect x="1" y="10" width="8" height="1" fill="#DCE2F0" />
		<rect x="1" y="7" width="6" height="1" fill="#DCE2F0" />
		<rect x="1" y="4" width="4" height="1" fill="#DCE2F0" />
		<rect x="6.89999" y="30.5" width="5.2" height="0.65" fill="#010004" />
		<rect x="6.89999" y="29.8499" width="5.2" height="0.65" fill="#222222" />
		<rect x="7.55" y="29.2" width="3.9" height="0.65" fill="#222222" />
		<rect x="8.2" y="28.55" width="2.6" height="0.65" fill="#222222" />
		<rect x="13.4" y="28.55" width="0.65" height="0.65" fill="#222222" />
		<rect x="4.95" y="28.55" width="0.65" height="0.65" fill="#222222" />
		<rect x="4.3" y="27.8999" width="1.95" height="0.65" fill="#222222" />
		<rect x="12.75" y="27.8999" width="1.95" height="0.65" fill="#222222" />
		<rect x="7.55" y="27.8999" width="3.9" height="0.65" fill="#222222" />
		<rect x="3.64999" y="27.25" width="11.7" height="0.65" fill="#222222" />
		<rect x="3.64999" y="25.3" width="11.7" height="1.95" fill="#414141" />
		<rect x="4.3" y="24.6499" width="10.4" height="0.65" fill="#414141" />
		<rect x="4.95" y="24" width="9.1" height="0.65" fill="#414141" />
		<rect x="5.60001" y="23.3499" width="7.8" height="0.65" fill="#414141" />
		<rect x="6.25" y="22.7" width="6.5" height="0.65" fill="#414141" />
		<rect x="6.89999" y="22.05" width="5.2" height="0.65" fill="#414141" />
		<rect x="7.55" y="21.3999" width="3.9" height="0.65" fill="#414141" />
		<rect x="8.2" y="20.75" width="2.6" height="0.65" fill="#414141" />
		<rect x="8.85001" y="20.0999" width="1.3" height="0.65" fill="#414141" />
		<rect x="6.25" y="29.8499" width="0.65" height="0.65" fill="#010004" />
		<rect x="12.1" y="29.8499" width="0.65" height="0.65" fill="#010004" />
		<rect x="11.45" y="29.2" width="0.65" height="0.65" fill="#010004" />
		<rect x="10.8" y="28.55" width="0.65" height="0.65" fill="#010004" />
		<rect x="6.89999" y="29.2" width="0.65" height="0.65" fill="#010004" />
		<rect x="7.55" y="28.55" width="0.65" height="0.65" fill="#010004" />
		<rect x="5.60001" y="28.55" width="0.65" height="0.65" fill="#010004" />
		<rect x="12.75" y="28.55" width="0.65" height="0.65" fill="#010004" />
		<rect x="4.95" y="29.2" width="0.65" height="0.65" fill="#010004" />
		<rect x="4.3" y="28.55" width="0.65" height="0.65" fill="#010004" />
		<rect x="14.05" y="28.55" width="0.65" height="0.65" fill="#010004" />
		<rect x="3.64999" y="27.8999" width="0.65" height="0.65" fill="#010004" />
		<rect x="14.7" y="27.8999" width="0.65" height="0.65" fill="#010004" />
		<rect x="3.64999" y="24.6499" width="0.65" height="0.65" fill="#010004" />
		<rect x="14.7" y="24.6499" width="0.65" height="0.65" fill="#010004" />
		<rect x="4.3" y="24" width="0.65" height="0.65" fill="#010004" />
		<rect x="4.95" y="23.3499" width="0.65" height="0.65" fill="#010004" />
		<rect x="5.60001" y="22.7" width="0.65" height="0.65" fill="#010004" />
		<rect x="6.25" y="22.05" width="0.65" height="0.65" fill="#010004" />
		<rect x="6.89999" y="21.3999" width="0.65" height="0.65" fill="#010004" />
		<rect x="7.55" y="20.75" width="0.65" height="0.65" fill="#010004" />
		<rect x="8.2" y="20.0999" width="0.65" height="0.65" fill="#010004" />
		<rect x="8.85001" y="19.45" width="1.3" height="0.65" fill="#010004" />
		<rect x="14.05" y="24" width="0.65" height="0.65" fill="#010004" />
		<rect x="13.4" y="23.3499" width="0.65" height="0.65" fill="#010004" />
		<rect x="12.75" y="22.7" width="0.65" height="0.65" fill="#010004" />
		<rect x="12.1" y="22.05" width="0.65" height="0.65" fill="#010004" />
		<rect x="11.45" y="21.3999" width="0.65" height="0.65" fill="#010004" />
		<rect x="10.8" y="20.75" width="0.65" height="0.65" fill="#010004" />
		<rect x="10.15" y="20.0999" width="0.65" height="0.65" fill="#010004" />
		<rect x="3" y="25.3" width="0.65" height="2.6" fill="#010004" />
		<rect x="15.35" y="25.3" width="0.65" height="2.6" fill="#010004" />
		<rect x="13.4" y="29.2" width="0.65" height="0.65" fill="#010004" />
		<rect x="6.25" y="27.8999" width="1.3" height="0.65" fill="#010004" />
		<rect x="11.45" y="27.8999" width="1.3" height="0.65" fill="#010004" />
		<rect x="51.1" y="52.6501" width="5.2" height="0.65" transform="rotate(-180 51.1 52.6501)" fill="#010004" />
		<rect x="51.1" y="53.3001" width="5.2" height="0.65" transform="rotate(-180 51.1 53.3001)" fill="#222222" />
		<rect x="50.45" y="53.9501" width="3.9" height="0.65" transform="rotate(-180 50.45 53.9501)" fill="#222222" />
		<rect x="49.8" y="54.6" width="2.6" height="0.65" transform="rotate(-180 49.8 54.6)" fill="#222222" />
		<rect x="44.6" y="54.6" width="0.65" height="0.65" transform="rotate(-180 44.6 54.6)" fill="#222222" />
		<rect x="53.05" y="54.6" width="0.65" height="0.65" transform="rotate(-180 53.05 54.6)" fill="#222222" />
		<rect x="53.7" y="55.2501" width="1.95" height="0.65" transform="rotate(-180 53.7 55.2501)" fill="#222222" />
		<rect x="45.25" y="55.2501" width="1.95" height="0.65" transform="rotate(-180 45.25 55.2501)" fill="#222222" />
		<rect x="50.45" y="55.2501" width="3.9" height="0.65" transform="rotate(-180 50.45 55.2501)" fill="#222222" />
		<rect x="54.35" y="55.9001" width="11.7" height="0.65" transform="rotate(-180 54.35 55.9001)" fill="#222222" />
		<rect x="54.35" y="57.85" width="11.7" height="1.95" transform="rotate(-180 54.35 57.85)" fill="#414141" />
		<rect x="53.7" y="58.5001" width="10.4" height="0.65" transform="rotate(-180 53.7 58.5001)" fill="#414141" />
		<rect x="53.05" y="59.15" width="9.1" height="0.65" transform="rotate(-180 53.05 59.15)" fill="#414141" />
		<rect x="52.4" y="59.8001" width="7.8" height="0.65" transform="rotate(-180 52.4 59.8001)" fill="#414141" />
		<rect x="51.75" y="60.4501" width="6.5" height="0.65" transform="rotate(-180 51.75 60.4501)" fill="#414141" />
		<rect x="51.1" y="61.1" width="5.2" height="0.65" transform="rotate(-180 51.1 61.1)" fill="#414141" />
		<rect x="50.45" y="61.7501" width="3.9" height="0.65" transform="rotate(-180 50.45 61.7501)" fill="#414141" />
		<rect x="49.8" y="62.4" width="2.6" height="0.65" transform="rotate(-180 49.8 62.4)" fill="#414141" />
		<rect x="49.15" y="63.0501" width="1.3" height="0.65" transform="rotate(-180 49.15 63.0501)" fill="#414141" />
		<rect x="51.75" y="53.3001" width="0.65" height="0.65" transform="rotate(-180 51.75 53.3001)" fill="#010004" />
		<rect x="45.9" y="53.3001" width="0.65" height="0.65" transform="rotate(-180 45.9 53.3001)" fill="#010004" />
		<rect x="46.55" y="53.9501" width="0.65" height="0.65" transform="rotate(-180 46.55 53.9501)" fill="#010004" />
		<rect x="47.2" y="54.6" width="0.65" height="0.65" transform="rotate(-180 47.2 54.6)" fill="#010004" />
		<rect x="51.1" y="53.9501" width="0.65" height="0.65" transform="rotate(-180 51.1 53.9501)" fill="#010004" />
		<rect x="50.45" y="54.6" width="0.65" height="0.65" transform="rotate(-180 50.45 54.6)" fill="#010004" />
		<rect x="52.4" y="54.6" width="0.65" height="0.65" transform="rotate(-180 52.4 54.6)" fill="#010004" />
		<rect x="45.25" y="54.6" width="0.65" height="0.65" transform="rotate(-180 45.25 54.6)" fill="#010004" />
		<rect x="53.05" y="53.9501" width="0.65" height="0.65" transform="rotate(-180 53.05 53.9501)" fill="#010004" />
		<rect x="53.7" y="54.6" width="0.65" height="0.65" transform="rotate(-180 53.7 54.6)" fill="#010004" />
		<rect x="43.95" y="54.6" width="0.65" height="0.65" transform="rotate(-180 43.95 54.6)" fill="#010004" />
		<rect x="54.35" y="55.2501" width="0.65" height="0.65" transform="rotate(-180 54.35 55.2501)" fill="#010004" />
		<rect x="43.3" y="55.2501" width="0.65" height="0.65" transform="rotate(-180 43.3 55.2501)" fill="#010004" />
		<rect x="54.35" y="58.5001" width="0.65" height="0.65" transform="rotate(-180 54.35 58.5001)" fill="#010004" />
		<rect x="43.3" y="58.5001" width="0.65" height="0.65" transform="rotate(-180 43.3 58.5001)" fill="#010004" />
		<rect x="53.7" y="59.15" width="0.65" height="0.65" transform="rotate(-180 53.7 59.15)" fill="#010004" />
		<rect x="53.05" y="59.8001" width="0.65" height="0.65" transform="rotate(-180 53.05 59.8001)" fill="#010004" />
		<rect x="52.4" y="60.4501" width="0.65" height="0.65" transform="rotate(-180 52.4 60.4501)" fill="#010004" />
		<rect x="51.75" y="61.1" width="0.65" height="0.65" transform="rotate(-180 51.75 61.1)" fill="#010004" />
		<rect x="51.1" y="61.7501" width="0.65" height="0.65" transform="rotate(-180 51.1 61.7501)" fill="#010004" />
		<rect x="50.45" y="62.4" width="0.65" height="0.65" transform="rotate(-180 50.45 62.4)" fill="#010004" />
		<rect x="49.8" y="63.0501" width="0.65" height="0.65" transform="rotate(-180 49.8 63.0501)" fill="#010004" />
		<rect x="49.15" y="63.7001" width="1.3" height="0.65" transform="rotate(-180 49.15 63.7001)" fill="#010004" />
		<rect x="43.95" y="59.15" width="0.65" height="0.65" transform="rotate(-180 43.95 59.15)" fill="#010004" />
		<rect x="44.6" y="59.8001" width="0.65" height="0.65" transform="rotate(-180 44.6 59.8001)" fill="#010004" />
		<rect x="45.25" y="60.4501" width="0.65" height="0.65" transform="rotate(-180 45.25 60.4501)" fill="#010004" />
		<rect x="45.9" y="61.1" width="0.65" height="0.65" transform="rotate(-180 45.9 61.1)" fill="#010004" />
		<rect x="46.55" y="61.7501" width="0.65" height="0.65" transform="rotate(-180 46.55 61.7501)" fill="#010004" />
		<rect x="47.2" y="62.4" width="0.65" height="0.65" transform="rotate(-180 47.2 62.4)" fill="#010004" />
		<rect x="47.85" y="63.0501" width="0.65" height="0.65" transform="rotate(-180 47.85 63.0501)" fill="#010004" />
		<rect x="55" y="57.85" width="0.65" height="2.6" transform="rotate(-180 55 57.85)" fill="#010004" />
		<rect x="42.65" y="57.85" width="0.65" height="2.6" transform="rotate(-180 42.65 57.85)" fill="#010004" />
		<rect x="44.6" y="53.9501" width="0.65" height="0.65" transform="rotate(-180 44.6 53.9501)" fill="#010004" />
		<rect x="51.75" y="55.2501" width="1.3" height="0.65" transform="rotate(-180 51.75 55.2501)" fill="#010004" />
		<rect x="46.55" y="55.2501" width="1.3" height="0.65" transform="rotate(-180 46.55 55.2501)" fill="#010004" />
		<path d="M7.75 17.625V12H9.625V17.625H7.75ZM9.625 12V10.125H11.5V12H9.625ZM11.5 10.125V6.375H5.875V8.25H4V4.5H13.375V10.125H11.5Z" fill="black" />
		<path d="M50.25 65.375V71H48.375V65.375H50.25ZM48.375 71V72.875H46.5V71H48.375ZM46.5 72.875V76.625H52.125V74.75H54V78.5H44.625V72.875H46.5Z" fill="black" />
	</g>
	<defs>
		<clipPath id="clip0_0_1065">
			<rect width="58" height="85" fill="white" />
		</clipPath>
	</defs>
</svg>
